#!OML:ASF F:\VICON\USERDATA\INSTALL\rory3\rory3.ASF
:FULLY-SPECIFIED
:DEGREES
139
root 0.16256392362046557 18.034014163702928 -12.205639978315078 11.39017030467905 -0.6646869901186341 -0.9320203429442588
lfemur -28.33300621424981 6.973034645921724 -19.712627522967278
ltibia 27.847021813161977
lfoot -7.9232288804019415 4.770679761482502
ltoes 3.8820276240384004
rfemur -24.605312475730337 -3.8746532094746433 19.564069633522266
rtibia 28.596600893421297
rfoot -12.512944004425671 -2.807692215864411
rtoes 11.646962611099688
lowerback 7.7331740716429795 0.19108009472240048 -1.045329981505864
upperback 6.083881362242539 0.28721909379317834 1.676394037090704
thorax 2.902504197323665 0.0653571115086019 1.7421982867674597
lowerneck -13.321861127928463 -3.5933901369661183 -1.7297783073925133
upperneck 31.42122727566757 -4.922140438434516 2.79712974041578
head 12.361274987498977 -2.386038972085542 0.7872201913075507
lclavicle -1.2169599024198833e-17 -8.163102815598798e-16
lhumerus -20.303587823935036 -14.123118380248965 88.2686967762218
lradius 27.457303635453833
lwrist 18.371541285536807
lhand -25.384087637509985 -4.157122615491072
lfingers 7.125019999999999
lthumb 0.3721401041724059 25.62559887429878
rclavicle -1.0579534648035723e-17 -8.145458882684195e-16
rhumerus -19.61147517084804 -4.576507956597969 -83.1527846920989
rradius 32.020447474014176
rwrist 25.954221405773445
rhand -18.298288951388752 -26.593786719407547
rfingers 7.125019999999999
rthumb 7.873349712570763 -56.363821842590085
140
root 0.16729690164870048 18.051450190563887 -12.23328018756594 10.951358426040823 -0.54592949290591 -0.9579017385299249
lfemur -27.578129254871165 7.003210459398037 -19.613298881149287
ltibia 27.28815206135919
lfoot -7.860250702792005 4.676210619965627
ltoes 3.7383445079419224
rfemur -23.994090998642257 -4.011917098970112 19.581815671038758
rtibia 27.804869068992623
rfoot -12.430721540966124 -2.8625146062433746
rtoes 11.48568204721331
lowerback 7.730924478872646 0.21048694713342023 -0.9865875448222482
upperback 5.870802894095088 0.336809863034331 1.7066390061387937
thorax 2.6597582306278578 0.10272668653194234 1.7373350359855841
lowerneck -13.280911251011458 -3.69217062817128 -1.8007807027715277
upperneck 31.313783254927692 -4.989042553511217 2.7817758569372666
head 12.21944764754046 -2.4414187891975394 0.7705262448118592
lclavicle -1.2418949180092964e-17 -8.166881038792003e-16
lhumerus -20.073132796118333 -13.226982430789972 88.27509378946765
lradius 27.251829007967658
lwrist 17.991030725774536
lhand -25.121511045408177 -4.006803033739099
lfingers 7.125019999999999
lthumb 0.8761114082434948 25.977662016558742
rclavicle -1.0712729920153116e-17 -8.147235618736851e-16
rhumerus -19.39642090335584 -3.5447142278526798 -83.44437677357777
rradius 32.63429821227662
rwrist 25.945980097769393
rhand -18.13209737318384 -26.55805166178423
rfingers 7.125019999999999
rthumb 8.087206364305956 -56.36037192866958
141
root 0.17603117178062966 18.061002766386288 -12.2933851068516 10.349478089106059 -0.38393353554594123 -0.9628299756845935
lfemur -26.63932404041605 6.951203021206937 -19.48851617181555
ltibia 26.85531722421577
lfoot -7.691945715075171 4.5721465129669205
ltoes 3.46758154903471
rfemur -23.16421350451104 -4.101505255088738 19.518119950643612
rtibia 26.843597530050143
rfoot -12.55102118209661 -2.9420464563974225
rtoes 11.099313969571222
lowerback 7.6736531020150345 0.19674680730285857 -0.8976481499645645
upperback 5.819062602230217 0.331392169491579 1.7494295712129877
thorax 2.4689218384216867 0.10646699973389356 1.7323258298747293
lowerneck -13.170195427097463 -3.779436791749486 -1.8407969948014469
upperneck 30.97536045068627 -5.077730137913285 2.6912435033232964
head 12.05567689676879 -2.50882536822512 0.7192039788680477
lclavicle -1.1418062750649575e-17 -8.153377831481119e-16
lhumerus -19.73193769397323 -12.62253378141765 88.37717834666769
lradius 27.095162851044837
lwrist 17.617425128441205
lhand -25.148086082250003 -4.011964627717866
lfingers 7.125019999999999
lthumb 1.1665365567322512 26.134865970801535
rclavicle -1.0441223335349001e-17 -8.143652797224009e-16
rhumerus -19.272185703421986 -2.934309608598768 -83.5993090402767
rradius 33.03738832331815
rwrist 26.090846659997233
rhand -17.95855816519929 -26.519208424396336
rfingers 7.125019999999999
rthumb 8.289696733782709 -56.343403967559446
142
root 0.19283186309441624 18.089418824553707 -12.362075894352838 9.689761384095236 -0.1450356367588932 -1.051234594767393
lfemur -25.72636883167031 6.859123828139774 -19.29957629957268
ltibia 26.56221122735657
lfoot -7.516518869314495 4.440493893015612
ltoes 3.0057324414554927
rfemur -22.42857341272453 -4.204541733880235 19.57716356839073
rtibia 26.088654138595835
rfoot -12.586011737137802 -3.023488759894039
rtoes 10.7948912911383
lowerback 7.57482297146327 0.13288638982765763 -0.6549028861525759
upperback 5.877567252484641 0.25114480021045604 1.826783304510583
thorax 2.358774453991295 0.06529457880197326 1.7066719502959644
lowerneck -13.021510770822852 -3.8160222953624867 -1.8907639577768698
upperneck 30.72826398945667 -5.16943831724459 2.5999263340649765
head 11.856261538459792 -2.5852310519196458 0.6648960105112134
lclavicle -1.0764990910210836e-17 -8.144499144449739e-16
lhumerus -19.21066397658155 -12.14927936927864 88.67765113122341
lradius 26.94075766411459
lwrist 17.31990674425222
lhand -25.232872562876846 -4.001316702816559
lfingers 7.125019999999999
lthumb 1.4213340960591592 26.39998833814761
rclavicle -1.1617667307951012e-17 -8.159139428787118e-16
rhumerus -19.241133351782782 -2.560402034158246 -83.6211526218987
rradius 33.208248376130626
rwrist 26.256610697256566
rhand -17.76459284522647 -26.509384576455762
rfingers 7.125019999999999
rthumb 8.459557598312868 -56.359652524480026
